<svg width="64" height="64" viewBox="0 0 64 64" fill="none" xmlns="http://www.w3.org/2000/svg">
  <rect x="2" y="2" width="60" height="60" rx="18" fill="#FF5A36" />
  <path
    d="M243.31,81.36,174.63,12.68a16,16,0,0,0-22.63,0L123.56,41.12l-58,21.76A16,16,0,0,0,55.36,75.23L34.59,199.83a4,4,0,0,0,6.77,3.49l57-57a23.85,23.85,0,0,1-2.29-12.08,24,24,0,1,1,13.6,23.4l-57,57a4,4,0,0,0,3.49,6.77l124.61-20.77a16,16,0,0,0,12.35-10.16l21.77-58.07L243.31,104a16,16,0,0,0,0-22.63ZM208,116.68,139.32,48l24-24L232,92.68Z"
    fill="#1D1C19"
    transform="translate(8 8) scale(0.1875)"
  />
</svg>
